ffmpeg version 3.4.8-0ubuntu0.2 Copyright (c) 2000-2020 the FFmpeg developers
  built with gcc 7 (Ubuntu 7.5.0-3ubuntu1~18.04)
  configuration: --prefix=/usr --extra-version=0ubuntu0.2 --toolchain=hardened --libdir=/usr/lib/x86_64-linux-gnu --incdir=/usr/include/x86_64-linux-gnu --enable-gpl --disable-stripping --enable-avresample --enable-avisynth --enable-gnutls --enable-ladspa --enable-libass --enable-libbluray --enable-libbs2b --enable-libcaca --enable-libcdio --enable-libflite --enable-libfontconfig --enable-libfreetype --enable-libfribidi --enable-libgme --enable-libgsm --enable-libmp3lame --enable-libmysofa --enable-libopenjpeg --enable-libopenmpt --enable-libopus --enable-libpulse --enable-librubberband --enable-librsvg --enable-libshine --enable-libsnappy --enable-libsoxr --enable-libspeex --enable-libssh --enable-libtheora --enable-libtwolame --enable-libvorbis --enable-libvpx --enable-libwavpack --enable-libwebp --enable-libx265 --enable-libxml2 --enable-libxvid --enable-libzmq --enable-libzvbi --enable-omx --enable-openal --enable-opengl --enable-sdl2 --enable-libdc1394 --enable-libdrm --enable-libiec61883 --enable-chromaprint --enable-frei0r --enable-libopencv --enable-libx264 --enable-shared
  libavutil      55. 78.100 / 55. 78.100
  libavcodec     57.107.100 / 57.107.100
  libavformat    57. 83.100 / 57. 83.100
  libavdevice    57. 10.100 / 57. 10.100
  libavfilter     6.107.100 /  6.107.100
  libavresample   3.  7.  0 /  3.  7.  0
  libswscale      4.  8.100 /  4.  8.100
  libswresample   2.  9.100 /  2.  9.100
  libpostproc    54.  7.100 / 54.  7.100
[rawvideo @ 0x55da4419ca20] Estimating duration from bitrate, this may be inaccurate
Input #0, rawvideo, from '../../SVC-Encoder-20220109T061506Z-001/SVC-Encoder/Dataset/RollerCoaster/ERP_8x8/tile_yuv/Tile_44_480x240.yuv':
  Duration: 00:00:10.00, start: 0.000000, bitrate: 41472 kb/s
    Stream #0:0: Video: rawvideo (I420 / 0x30323449), yuv420p, 480x240, 41472 kb/s, 30 tbr, 30 tbn, 30 tbc
Stream mapping:
  Stream #0:0 -> #0:0 (rawvideo (native) -> h264 (libx264))
Press [q] to stop, [?] for help
[libx264 @ 0x55da441a9c60] using cpu capabilities: MMX2 SSE2Fast LZCNT SSSE3 SSE4.2 AVX
[libx264 @ 0x55da441a9c60] profile High, level 2.1
Output #0, rawvideo, to 'RollerCoaster_Tile_44_480x240_x264_QP_28.h264':
  Metadata:
    encoder         : Lavf57.83.100
    Stream #0:0: Video: h264 (libx264), yuv420p, 480x240, q=-1--1, 30 fps, 30 tbn, 30 tbc
    Metadata:
      encoder         : Lavc57.107.100 libx264
    Side data:
      cpb: bitrate max/min/avg: 0/0/0 buffer size: 0 vbv_delay: -1
frame=  122 fps=0.0 q=34.0 PSNR=Y:nan U:nan V:nan *:nan size=     112kB time=00:00:02.63 bitrate= 347.9kbits/s speed=5.25x    frame=  217 fps=216 q=34.0 PSNR=Y:nan U:nan V:nan *:nan size=     237kB time=00:00:05.80 bitrate= 335.3kbits/s speed=5.78x    frame=  300 fps=190 q=34.0 LPSNR=Y:inf U:inf V:inf *:inf size=     407kB time=00:00:09.93 bitrate= 335.7kbits/s speed=6.29x    
video:407kB audio:0kB subtitle:0kB other streams:0kB global headers:0kB muxing overhead: 0.000000%
[libx264 @ 0x55da441a9c60] frame I:2     Avg QP:27.78  size: 10112  PSNR Mean Y:40.26 U:42.68 V:45.72 Avg:41.17 Global:41.11
[libx264 @ 0x55da441a9c60] frame P:79    Avg QP:29.46  size:  2902  PSNR Mean Y:37.70 U:42.33 V:45.37 Avg:38.93 Global:38.90
[libx264 @ 0x55da441a9c60] frame B:219   Avg QP:33.48  size:   764  PSNR Mean Y:37.36 U:42.59 V:45.49 Avg:38.65 Global:38.62
[libx264 @ 0x55da441a9c60] consecutive B-frames:  1.0%  2.7%  7.0% 89.3%
[libx264 @ 0x55da441a9c60] mb I  I16..4:  4.7% 57.2% 38.1%
[libx264 @ 0x55da441a9c60] mb P  I16..4:  1.1%  6.2%  1.1%  P16..4: 43.9% 27.6%  7.2%  0.0%  0.0%    skip:12.8%
[libx264 @ 0x55da441a9c60] mb B  I16..4:  0.1%  0.4%  0.0%  B16..8: 45.0% 11.0%  0.9%  direct: 0.7%  skip:41.9%  L0:41.4% L1:50.1% BI: 8.5%
[libx264 @ 0x55da441a9c60] 8x8 transform intra:69.7% inter:75.2%
[libx264 @ 0x55da441a9c60] coded y,uvDC,uvAC intra: 68.3% 77.9% 33.3% inter: 13.2% 13.1% 0.1%
[libx264 @ 0x55da441a9c60] i16 v,h,dc,p: 24% 23% 21% 32%
[libx264 @ 0x55da441a9c60] i8 v,h,dc,ddl,ddr,vr,hd,vl,hu:  5% 26% 16%  3%  6%  6% 14%  2% 21%
[libx264 @ 0x55da441a9c60] i4 v,h,dc,ddl,ddr,vr,hd,vl,hu:  8% 25% 17%  3% 14%  9% 11%  2% 11%
[libx264 @ 0x55da441a9c60] i8c dc,h,v,p: 42% 37%  7% 14%
[libx264 @ 0x55da441a9c60] Weighted P-Frames: Y:1.3% UV:0.0%
[libx264 @ 0x55da441a9c60] ref P L0: 59.5% 16.0% 16.7%  7.7%  0.1%
[libx264 @ 0x55da441a9c60] ref B L0: 90.3%  8.3%  1.4%
[libx264 @ 0x55da441a9c60] ref B L1: 96.2%  3.8%
[libx264 @ 0x55da441a9c60] PSNR Mean Y:37.469 U:42.519 V:45.464 Avg:38.744 Global:38.706 kb/s:333.45
